<?xml version="1.0" standalone="no"?>
<!DOCTYPE svg PUBLIC "-//W3C//DTD SVG 20010904//EN"
 "http://www.w3.org/TR/2001/REC-SVG-20010904/DTD/svg10.dtd">
<svg version="1.0" xmlns="http://www.w3.org/2000/svg"
 width="250.000000pt" height="250.000000pt" viewBox="0 0 250.000000 250.000000"
 preserveAspectRatio="xMidYMid meet">
<metadata>
Created by potrace 1.11, written by Peter Selinger 2001-2013
</metadata>
<g transform="translate(0.000000,250.000000) scale(0.100000,-0.100000)"
fill="#000000" stroke="none">
<path d="M1102 2113 c8 -10 79 -97 157 -193 79 -96 150 -184 159 -195 10 -11
35 -42 57 -70 22 -27 48 -59 58 -70 10 -11 28 -32 39 -47 l19 -28 -33 -1 c-18
0 -255 -1 -526 -1 -488 0 -494 1 -513 21 -48 51 -148 1 -134 -67 13 -67 86
-96 133 -52 21 20 35 20 627 20 333 0 605 2 605 5 0 5 -267 337 -334 416 -43
50 -66 77 -106 129 -19 25 -38 47 -42 48 -5 2 -8 9 -8 15 0 9 55 11 206 10
190 -2 208 -4 220 -21 7 -11 85 -107 172 -213 471 -576 443 -541 429 -558 -8
-9 -54 -65 -103 -126 -49 -60 -93 -115 -99 -121 -5 -6 -102 -125 -214 -263
l-204 -251 -228 0 c-142 0 -229 4 -229 10 0 5 -12 16 -27 23 -40 20 -88 5
-109 -34 -41 -81 49 -154 121 -98 26 21 36 22 268 22 l242 0 110 135 c61 74
142 175 181 223 40 49 88 108 107 131 31 37 153 188 264 324 l33 41 -101 124
c-55 68 -112 138 -126 154 -13 17 -124 153 -246 302 l-222 273 -309 0 c-293 0
-308 -1 -294 -17z"/>
<path d="M1533 1954 c-29 -29 -31 -82 -3 -112 12 -12 26 -22 33 -23 33 -2 50
-9 62 -26 7 -10 99 -123 205 -252 105 -128 196 -241 202 -250 9 -15 -11 -44
-123 -182 -73 -90 -136 -166 -139 -169 -3 -3 -21 -25 -40 -50 -19 -25 -37 -47
-40 -50 -5 -5 -101 -120 -107 -129 -6 -8 -153 -6 -153 1 0 7 130 170 272 341
26 32 48 61 48 65 0 4 -202 7 -450 6 l-449 -1 -22 23 c-29 31 -70 31 -106 0
-33 -28 -38 -57 -17 -97 24 -47 100 -55 126 -15 5 7 123 11 383 11 206 0 375
-2 375 -4 0 -4 -118 -150 -130 -161 -3 -3 -41 -50 -85 -105 -44 -55 -88 -109
-97 -119 -10 -11 -16 -21 -14 -24 4 -3 236 -6 322 -3 29 1 54 28 293 321 143
175 261 322 261 326 0 6 -112 148 -176 224 -161 189 -299 368 -296 383 6 31
-18 75 -46 85 -40 15 -64 11 -89 -14z"/>
<path d="M75 1335 c-70 -69 28 -177 106 -116 23 18 55 19 758 18 l734 0 34
-22 c34 -24 41 -25 80 -11 52 17 64 94 21 132 -25 24 -82 23 -108 -1 -21 -19
-45 -20 -753 -20 l-731 0 -27 23 c-36 30 -83 29 -114 -3z"/>
</g>
</svg>
